<svg xmlns="http://www.w3.org/2000/svg" viewBox="0 0 755 245.57"><defs><style>.cls-1{fill:#fff;}</style></defs><g id="Layer_2" data-name="Layer 2"><g id="Layer_1-2" data-name="Layer 1"><path class="cls-1" d="M0,106.17s57.53,72.7,69.88,101.29c0,0,72-13.77,141.88,0,0,0,39.89-66.35,71.3-101.29,0,0-31.06-17.65-45.18,9.88,0,0-8.47,22.94-18,24,0,0-29.78,9.82-45.52-16.17a20.84,20.84,0,0,1-2.26-17c2.16-6.75,8.43-14.61,24.84-19,0,0-42-35.29-55.41-87.88,0,0-13.06,56.12-55.41,87.18,0,0,32.12,7.76,25.06,31.76s-34.24,23.3-34.24,23.3-24,1.62-31.59-23.46a27.68,27.68,0,0,0-9.06-13.64C29.35,99.51,17.66,95.68,0,106.17Z"/><path class="cls-1" d="M68.64,227.61c11.72-1.84,75.2-10.73,145.47.14a9.38,9.38,0,0,0,4.31-.29c2.45-.79,5.3-2.91,4.33-8.53a5.85,5.85,0,0,0-4.81-4.79c-14.4-2.4-70.74-10.18-150.74-.91a8.52,8.52,0,0,0-7.64,8A5.71,5.71,0,0,0,63.34,227,9.51,9.51,0,0,0,68.64,227.61Z"/><path class="cls-1" d="M358.39,89A2.2,2.2,0,0,0,360,86.8V58.41a1.7,1.7,0,0,0-3.37-.18c-.42,2.64-1.71,6.85-5.63,3.82,0,0-19.06-11.83-37.76-2.3S299.82,88,299.82,88s1.77,16.06,26.65,27.7,25.41,16.42,21,27c-3.26,7.83-16.07,6.5-22.53,5.27a16.84,16.84,0,0,1-7.12-3.23C313,141,304.62,133,305.12,123.46c0,0,0-6.35-4.59-4.94l-.35,33.88s-.53,6.27,3.88,2.52c0,0,3.88-7.11,10.23-4.28,0,0,30.54,14.11,45.71-8S357.71,106,357.71,106s-6.53-7.1-31.42-18-4.05-27.53,5.12-25.59,21.71,5.82,24.71,24.53C356.12,86.93,356.67,89.36,358.39,89Z"/><circle class="cls-1" cx="427.18" cy="106.16" r="50.12"/><path class="cls-1" d="M527.12,57.64h-45s-1.41,2.88,0,5.23c0,0,7.76-.29,10.23,6.94S531,157.34,531,157.34l37.41-81.17s5.65-14.12,14.12-14.48c0,0,1.41-3.17,0-4H551.12s-1.94,1,0,4c0,0,10.76.18,11.29,6.36S540,123.28,540,123.28L517.24,70.17s-5.12-8,9.35-8.65l.88.17Z"/><path class="cls-1" d="M597.71,153.46H566.12s-1.59-2.12,0-3.88c0,0,7.06-.18,13.23-13.41s36.53-80.83,36.53-80.83l36.88,82.06s3.36,11.65,12,11.82c0,0,3.71,1.77,1.42,4.24H621.35s-2.64-.71-.88-3.88c0,0,8.65,1.06,9.53-5.3,0,0-.35-3.7-6.18-16.94H592.41a3.5,3.5,0,0,0-2.65,2.83c-.52,2.47-3.52,10.23-3.52,10.23s-3,8.29,8.47,9h3.17S599.82,151.69,597.71,153.46Z"/><path class="cls-1" d="M669.35,57.46h50.47s.89,2.65,0,3.88c0,0-13.23-.35-13.94,6.35s0,72.36,0,72.36-.88,6,4.59,5.64,22.24,0,22.24,0,12.53.18,19.76-26.11a2,2,0,0,1,2.53-1.24V153.4H669.35v-4.29s12.89,2.35,13-7.42V67.58s-2.59-6.83-13-5.18Z"/><path class="cls-1" d="M338.4,210.28v-2.81c6.09-.61,6.5-1.14,6.5-8l-.08-29.65c-5.77,13.08-12.1,27.52-17.87,40.44H324.3c-5.21-12.39-10.9-26.53-16.67-39.83-1,23.87-1,28.58-1,31.32.08,4.1,1.68,5.17,7.69,5.7v2.81H294.41v-2.81c4.57-.38,6.65-1.22,7.29-5.78.32-2.28.64-6.61,2.49-31.7.24-3.65-.32-5.7-7.21-6.31v-2.81h17.3l15.47,33.53,15.55-33.53h16.9v2.81c-6.41.61-7.13,1.22-7,7.3l.64,28.51c.08,6.84.4,7.14,6.89,8v2.81Z"/><path class="cls-1" d="M408.53,197.38c-.38,2.05-2.54,10.78-3.23,12.9H365.41v-2.73c7-.68,7.46-1.06,7.46-7.44v-29c0-6.46-.93-6.91-6.15-7.37v-2.81h25c8.07,0,10.76-.07,11.83-.15.08,1.37.46,7.6.77,12.3l-3,.38c-.7-2.58-2-5.69-3.31-7.06-1.38-1.52-2.38-2-6.3-2h-5c-2.92,0-3.23.15-3.23,2.73V183H386c4.3,0,5.07-1.14,6.22-6.53h3v16.93h-3c-1.23-5.62-1.84-6.53-6.3-6.53h-2.46v13c0,5.24.16,6.83,4.92,6.91h5.46c4.3,0,5.46-.54,7.15-2.58a34,34,0,0,0,4.69-7.6Z"/><path class="cls-1" d="M455.7,174.16a23.59,23.59,0,0,0-3.34-7.47c-1.4-1.61-2-2.22-6.6-2.22h-5V200.3c0,6.41.77,6.86,7.69,7.4v2.82H422.7V207.7c6.6-.54,7.3-1,7.3-7.4V164.47h-4.74c-4.35,0-5.59.69-7.07,2.52a29.08,29.08,0,0,0-3.19,7.24h-2.95c.54-5.56,1.09-11.51,1.24-15.17h2.33c1.17,1.76,2.1,1.91,4.43,1.91H451.1a5.18,5.18,0,0,0,4.51-1.91h2.25c.08,3.2.39,9.91.78,14.87Z"/><path class="cls-1" d="M482.51,210.28v-2.79c4.8-.68,4.8-1.51,3.73-4.75-.76-2.27-2-5.67-3.12-8.68H468.28c-.84,2.33-1.9,5.2-2.66,7.54-1.6,4.76.23,5.36,6.24,5.89v2.79h-18.8v-2.79c4.79-.6,6-1.28,8.6-7.62l15.83-39,3.65-.67c4.88,13.13,10.05,26.56,15,39.17,2.82,7,3.5,7.55,8.45,8.15v2.79Zm-6.69-36.08c-2.21,5.44-4.34,10.5-6.24,16h12.1Z"/><path class="cls-1" d="M552,197c-.67,3.23-3,11.21-3.79,13.24H506.43V207.5c7.41-.45,8.09-1,8.09-7.3V171.52c0-6.33-.84-6.93-7.16-7.38v-2.78h26.28v2.78c-6.57.53-7.41,1-7.41,7.38v29.2c0,4.14.16,6,4.8,6.1.17.08,4,.08,4.38.08,4.8,0,6.06-.91,8.08-2.94a31.09,31.09,0,0,0,5.31-7.83Z"/><path class="cls-1" d="M585.22,174.09c-1.7-4.66-4.07-10-11.88-10-4.92,0-8.14,3-8.14,7.06s3.14,6.42,10.6,9.62c9.08,3.86,14.85,7.65,14.85,14.87,0,8.59-8.32,14.86-20.44,14.86A56.1,56.1,0,0,1,556,208.26c-.51-1.68-2-9.25-2.55-12.68l3.31-.65c1.7,4.59,6.45,12.53,14.76,12.53,5.17,0,8.31-2.77,8.31-7.43,0-4.23-3-6.71-10.18-10-8.86-4.1-14.65-7.71-14.65-15.28s7-13.7,19.68-13.7a71.67,71.67,0,0,1,12.13,1.31c.34,2.69.93,6.48,1.61,11.07Z"/><path class="cls-1" d="M654.35,196.93c-.63,3.22-2.85,11.17-3.56,13.2H611.51v-2.8c7-.45,7.6-1,7.6-7.27V171.48c0-6.3-.79-6.9-6.73-7.35v-2.77h24.71v2.77c-6.18.53-7,1.05-7,7.35v29.1c0,4.13.16,6,4.51,6.08.16.07,3.81.07,4.12.07,4.52,0,5.7-.9,7.6-2.92a30.61,30.61,0,0,0,5-7.8Z"/><path class="cls-1" d="M701.12,196.93c-.64,3.22-2.85,11.17-3.57,13.2H658.27v-2.8c7-.45,7.61-1,7.61-7.27V171.48c0-6.3-.8-6.9-6.74-7.35v-2.77h24.71v2.77c-6.17.53-7,1.05-7,7.35v29.1c0,4.13.16,6,4.52,6.08.16.07,3.8.07,4.12.07,4.51,0,5.7-.9,7.6-2.92a31.52,31.52,0,0,0,5-7.8Z"/><path class="cls-1" d="M753,196.72a106.48,106.48,0,0,1-4,11.68,61.71,61.71,0,0,1-13.18,1.88c-19.25,0-27.2-12.54-27.2-24.07,0-15,11.31-25.16,28.49-25.16,6.23,0,11.74,1.52,13.53,1.74.36,3.41.86,8.77,1.36,12l-2.86.51c-1.5-5.66-3.65-8.34-7.45-9.86a17.79,17.79,0,0,0-6.22-1c-10.38,0-15.61,8.78-15.61,20.16,0,13.27,6.73,22.26,16.54,22.26,6,0,10-3.19,13.88-11.16Z"/><path class="cls-1" d="M353.87,245.14V225.82H358L360.47,239l2.46-13.19H367v19.32h-2.56V229.93l-2.71,15.22h-2.64l-2.66-15.22v15.22Z"/><path class="cls-1" d="M377.42,245.14V225.82H387.5v3.27h-7.35v4.28H387v3.26h-6.83v5.24h7.6v3.27Z"/><path class="cls-1" d="M400.82,245.14v-16h-4v-3.27h10.8v3.27h-4v16Z"/><path class="cls-1" d="M427.91,245.14h-3l-1.19-4.38h-5.44l-1.12,4.38h-2.92l5.29-19.32h2.91Zm-5-7.64L421,230.33l-1.84,7.17Z"/><path class="cls-1" d="M437.11,245.14V226h2.74v15.89h6.83v3.27Z"/><path class="cls-1" d="M468.4,235.6a15.76,15.76,0,0,1,.88-5.69,7.6,7.6,0,0,1,2.29-3.32A5.4,5.4,0,0,1,475,225.5a5.62,5.62,0,0,1,4.76,2.59q1.83,2.59,1.83,7.39c0,3.23-.64,5.76-1.94,7.57a5.7,5.7,0,0,1-9.29,0A12.63,12.63,0,0,1,468.4,235.6Zm2.83-.13a9.15,9.15,0,0,0,1.09,5,3,3,0,0,0,5.37,0,9.53,9.53,0,0,0,1.07-5.08,9.31,9.31,0,0,0-1-5,3.08,3.08,0,0,0-2.76-1.56,3.15,3.15,0,0,0-2.73,1.62,9.48,9.48,0,0,0-1,5Z"/><path class="cls-1" d="M491.43,245.14V225.82h5.78a7,7,0,0,1,3.16.53,3.71,3.71,0,0,1,1.56,1.8,7.1,7.1,0,0,1,.61,3.08,6.38,6.38,0,0,1-.93,3.64,4,4,0,0,1-2.65,1.74,7.77,7.77,0,0,1,1.46,1.62,24.86,24.86,0,0,1,1.57,3.14l1.65,3.77h-3.27l-2-4.21a27.31,27.31,0,0,0-1.46-2.85,2.27,2.27,0,0,0-.81-.79,3.42,3.42,0,0,0-1.38-.22h-.56v8.07ZM494.17,234h2a8.64,8.64,0,0,0,2.38-.19,1.58,1.58,0,0,0,.82-.77,3.28,3.28,0,0,0,.32-1.54,3,3,0,0,0-.32-1.48,1.62,1.62,0,0,0-.86-.77,9.24,9.24,0,0,0-2.23-.15h-2.14Z"/><path class="cls-1" d="M512.82,245.14V225.82H522.9v3.27h-7.35v4.28h6.83v3.26h-6.83v5.24h7.6v3.27Z"/><path class="cls-1" d="M532.46,238.84l2.68-.37c.3,2.47,1.3,3.71,3,3.7a2.53,2.53,0,0,0,2-.76,2.59,2.59,0,0,0,.71-1.87,2.3,2.3,0,0,0-.25-1.12,1.89,1.89,0,0,0-.75-.76,18.23,18.23,0,0,0-2.47-1,7.75,7.75,0,0,1-2.56-1.34,5.16,5.16,0,0,1-1.3-1.9,6.65,6.65,0,0,1-.52-2.49,6.49,6.49,0,0,1,.62-2.84,4.43,4.43,0,0,1,1.7-1.91,5.23,5.23,0,0,1,2.68-.64,4.72,4.72,0,0,1,3.74,1.51,6.58,6.58,0,0,1,1.42,4.33l-2.74.18a3.76,3.76,0,0,0-.78-2.18,2.3,2.3,0,0,0-1.71-.62,2.46,2.46,0,0,0-1.71.54,1.73,1.73,0,0,0-.6,1.34,1.8,1.8,0,0,0,.55,1.33,7.27,7.27,0,0,0,2.5,1.18,9.86,9.86,0,0,1,3,1.47,4.92,4.92,0,0,1,1.4,2,7.88,7.88,0,0,1,.49,3,6.66,6.66,0,0,1-1.33,4.22,4.94,4.94,0,0,1-4.15,1.71Q533,245.46,532.46,238.84Z"/><path class="cls-1" d="M569.53,245.14v-16h-4v-3.27h10.79v3.27h-4v16Z"/><path class="cls-1" d="M585.76,245.14V225.82h5.78a7,7,0,0,1,3.17.53,3.8,3.8,0,0,1,1.56,1.8,7.25,7.25,0,0,1,.61,3.08,6.31,6.31,0,0,1-.94,3.64,4,4,0,0,1-2.65,1.74,7.27,7.27,0,0,1,1.46,1.62,24.86,24.86,0,0,1,1.57,3.14l1.65,3.77H594.7l-2-4.21a29.32,29.32,0,0,0-1.45-2.85,2.3,2.3,0,0,0-.82-.79,3.26,3.26,0,0,0-1.38-.22h-.56v8.07ZM588.5,234h2a8.64,8.64,0,0,0,2.38-.19,1.58,1.58,0,0,0,.82-.77,3.28,3.28,0,0,0,.32-1.54,3,3,0,0,0-.32-1.48,1.62,1.62,0,0,0-.86-.77,9.19,9.19,0,0,0-2.22-.15H588.5Z"/><path class="cls-1" d="M619.4,245.14h-3l-1.19-4.38H609.8l-1.12,4.38h-2.92l5.29-19.32h3Zm-5-7.64-1.88-7.17-1.84,7.17Z"/><path class="cls-1" d="M628.52,225.82h5a6.51,6.51,0,0,1,2.86.5,5,5,0,0,1,1.78,1.67,9.17,9.17,0,0,1,1.28,3,20.22,20.22,0,0,1,.46,4.65,16.74,16.74,0,0,1-.49,4.35,9.22,9.22,0,0,1-1.23,2.93,4.78,4.78,0,0,1-1.8,1.63,6,6,0,0,1-2.71.55h-5.15Zm2.73,3.27v12.78h2.06a4.61,4.61,0,0,0,1.91-.29,2.37,2.37,0,0,0,1-.88,5.21,5.21,0,0,0,.62-1.84,22.93,22.93,0,0,0,0-6.72,4.86,4.86,0,0,0-.79-1.94,2.49,2.49,0,0,0-1.31-.94,9.78,9.78,0,0,0-2.23-.17Z"/><path class="cls-1" d="M649.84,245.14V225.82h2.73v19.32Z"/><path class="cls-1" d="M662.91,245.14V225.82h2.67l5.56,12.9v-12.9h2.56v19.32h-2.76l-5.47-12.6v12.6Z"/><path class="cls-1" d="M690.6,238.05v-3.27h5.91v7.69a7.59,7.59,0,0,1-2.53,2.11,6.92,6.92,0,0,1-3.29.88,5.74,5.74,0,0,1-3.55-1.15,7.62,7.62,0,0,1-2.44-3.45,16.7,16.7,0,0,1,0-10.86,7.84,7.84,0,0,1,2.37-3.39,5.56,5.56,0,0,1,3.47-1.11,5.31,5.31,0,0,1,3.9,1.44,7.28,7.28,0,0,1,1.88,4.23l-2.71.73a4.39,4.39,0,0,0-1.12-2.28,2.71,2.71,0,0,0-2-.79,3.28,3.28,0,0,0-2.83,1.59,8.6,8.6,0,0,0-1.09,4.84,9.93,9.93,0,0,0,1.17,5.31,3.1,3.1,0,0,0,2.73,1.56,3.62,3.62,0,0,0,1.67-.44,5.29,5.29,0,0,0,1.54-1.2v-2.44Z"/><rect class="cls-1" x="297.18" y="235.4" width="48.18" height="3.53"/><rect class="cls-1" x="704.79" y="235.4" width="48.18" height="3.53"/></g></g></svg>