<svg xmlns="http://www.w3.org/2000/svg" viewBox="0 0 442.46 508.22"><defs><style>.cls-1{fill:#d2b04a;}</style></defs><g id="Layer_2" data-name="Layer 2"><g id="Layer_1-2" data-name="Layer 1"><path class="cls-1" d="M0,482H388.93v26.25H0Z"/><path class="cls-1" d="M416.21,482h26.25v26.25H416.21Z"/><path class="cls-1" d="M314.46,433.3l60.8-43.36,15.24,21.37-60.8,43.36Z"/><path class="cls-1" d="M302.75,362.76l38.93-32.43,16.8,20.18-38.93,32.42Z"/><path class="cls-1" d="M52,411.27,67.21,389.9,128,433.25l-15.24,21.37Z"/><path class="cls-1" d="M84,350.52l16.8-20.18,38.93,32.42-16.8,20.17Z"/><path class="cls-1" d="M221.23,467.56A13.16,13.16,0,0,1,210.49,462L171,405.81a13.12,13.12,0,0,1-2.38-7.54V363.75h26.25v30.36l26.35,37.5,26.36-37.5V269.28h26.25v129a13.14,13.14,0,0,1-2.39,7.55L232,462a13.14,13.14,0,0,1-10.74,5.59Z"/><path class="cls-1" d="M278.05,282.41H164.4a13.12,13.12,0,0,1-13.12-13.13V197.69a13.12,13.12,0,0,1,13.12-13.13H278.05a13.13,13.13,0,0,1,13.13,13.13v71.59A13.13,13.13,0,0,1,278.05,282.41ZM177.53,256.16h87.4V210.81h-87.4Z"/><path class="cls-1" d="M168.62,309.81h26.25v26.25H168.62Z"/><path class="cls-1" d="M316.64,210.82H125.83a13.12,13.12,0,0,1-13.12-13.13V83.91a13.11,13.11,0,0,1,13.12-13.12H316.65a13.12,13.12,0,0,1,13.13,13.12V197.69a13.14,13.14,0,0,1-13.13,13.13ZM139,184.57H303.52V97H139Z"/><path class="cls-1" d="M172.06,83.91H145.81V13.12A13.12,13.12,0,0,1,158.93,0h124.6a13.13,13.13,0,0,1,13.13,13.12V45.71H270.41V26.25H172.06Z"/></g></g></svg>