<svg xmlns="http://www.w3.org/2000/svg" viewBox="0 0 559.99 393.79"><defs><style>.cls-1{fill:#d2b04a;}</style></defs><g id="Layer_2" data-name="Layer 2"><g id="Layer_1-2" data-name="Layer 1"><path class="cls-1" d="M171,48.94C171,54.49,158.72,59,143.56,59s-27.47-4.5-27.47-10.05,12.3-10,27.47-10,27.46,4.5,27.46,10"/><path class="cls-1" d="M7.63,71.37a59.31,59.31,0,0,1,5.22,25.1A105.68,105.68,0,0,1,11,110.09a85.29,85.29,0,0,0-2,23.52,52.09,52.09,0,0,0,5,17.7c1.38,37,2,81.92,2.18,112.12h0a221.07,221.07,0,0,1-4.14,34.5c-4.19,24.94-8.95,53.22.52,73.44,6.35,13.55,17.6,16.31,27.53,18.75,2,.48,4,1,6.2,1.6h0a83.67,83.67,0,0,0,20.81,2c10.15,0,19.34-.86,20-.92l101.44-9.68h0a46.54,46.54,0,0,0,13-2.59c15-5.9,21.1-22.56,20.47-36.46h0a96.93,96.93,0,0,0-6.94-28.39c-.79-2.18-1.56-4.36-2.29-6.54h0a158.25,158.25,0,0,1-8.05-56.83,335,335,0,0,1,4.48-37.63c3.09-19.65,6.27-40,4-60.58h0a91.48,91.48,0,0,0,3.29-33.56c-.5-12.47-1-21.15-1.5-29.83-.49-8.32-1-16.67-1.45-28.4h0A26.64,26.64,0,0,0,217.22,49c0-31.79-56-48.95-108.61-48.95S0,17.16,0,49A27.47,27.47,0,0,0,5.41,65.12c.75,2.18,1.5,4.26,2.22,6.25Zm187.53,292.9a31.61,31.61,0,0,1-8.24,1.45L85.48,375.4c-10.12,1-27.47,1.46-34.33-.5-2.37-.68-4.65-1.24-6.83-1.77-9.7-2.38-13.19-3.5-15.85-9.18-7.16-15.28-2.88-40.69.88-63.11a234,234,0,0,0,4.39-37.49c-.12-23.7-.55-56.43-1.39-87.36,3.16,3.26,6.39,6.39,9.53,9.42s6.15,5.94,9.06,8.92h0a151.32,151.32,0,0,1,37.57,66.54A8.76,8.76,0,0,0,97,267.39a8.88,8.88,0,0,0,2.24-.29,8.75,8.75,0,0,0,6.22-10.7,168.79,168.79,0,0,0-41.94-74.25c-3-3.13-6.23-6.22-9.46-9.34h0a124.05,124.05,0,0,1-22.78-26.24,8.62,8.62,0,0,0-2-4.11A34.49,34.49,0,0,1,26.44,132a70.94,70.94,0,0,1,1.77-18.77A123,123,0,0,0,30.34,97.3a61.1,61.1,0,0,0-1-14.22C50.41,92.82,80,97.9,108.61,97.9c33,0,67.19-6.72,88.2-19.54.25,4.77.5,9.07.75,13.38.5,8.59,1,17.18,1.49,29.52.55,13.8.42,27.93-7.65,35.69h0a46.32,46.32,0,0,1-9.16,6.15,56.42,56.42,0,0,0-13.65,9.74c-12.65,13.23-11,31.28-9.52,47.19a137.87,137.87,0,0,1,.89,17.47c-1,25.8-21.31,47.34-38.85,63.22h0a8.75,8.75,0,1,0,11.74,13c20.08-18.18,43.29-43.19,44.59-75.5h0a153.7,153.7,0,0,0-.94-19.77c-1.29-14-2.4-26,4.74-33.5a42.35,42.35,0,0,1,9.63-6.61c1.76-1,3.63-2.08,5.5-3.27A337.33,337.33,0,0,1,192,212a346.65,346.65,0,0,0-4.68,39.62,175.7,175.7,0,0,0,8.93,63.09c.77,2.3,1.58,4.59,2.4,6.88h0a82.82,82.82,0,0,1,6,23.3c.34,7.66-2.78,16.79-9.41,19.39ZM108.61,17.5c56.45,0,91.11,18.32,91.11,31.45S165.06,80.4,108.61,80.4,17.5,62.08,17.5,49,52.17,17.5,108.61,17.5Z"/><path class="cls-1" d="M108,342.72l-8.63-5.46h0a39.64,39.64,0,0,1-13.45-11.5,39.58,39.58,0,0,1-3.49-14c-.18-1.33-.36-2.66-.56-4h0a113.5,113.5,0,0,0-14.51-40.64,10.88,10.88,0,0,0-9.65-5.4,9.32,9.32,0,0,0-8,5.5,8.74,8.74,0,0,0,4.11,11.47,96,96,0,0,1,10.75,31.69c.18,1.22.35,2.45.51,3.68h0a54,54,0,0,0,5.66,20.42A53.4,53.4,0,0,0,90,352l8.63,5.47A8.75,8.75,0,0,0,108,342.72Z"/><path class="cls-1" d="M251.41,330.34,262.72,336a21.48,21.48,0,0,0,28.74-9.44l41.64-82.18,2.61,1.3a22.51,22.51,0,0,0,30.11-9.89l4.79-9.45a22.31,22.31,0,0,0-9.95-30L305.92,168.9a22.51,22.51,0,0,0-30.11,9.89L271,188.24a22.31,22.31,0,0,0,10,30l2.55,1.28-41.61,82.11a21.31,21.31,0,0,0,9.5,28.68Zm34.51-76.8L298.46,274l-8.28,16.33-12.54-20.48Zm.72-57.39,4.79-9.45h0a5,5,0,0,1,6.65-2.16L352.82,212a4.86,4.86,0,0,1,2.45,2.83,4.77,4.77,0,0,1-.27,3.65l-4.8,9.45a5,5,0,0,1-6.65,2.16l-10.38-5.2h0l-33.93-17h0l-10.39-5.21a4.86,4.86,0,0,1-2.46-2.82,4.69,4.69,0,0,1,.29-3.65Zm30.82,40.39-9.7,19.14L295.21,235.2l4-7.81Zm-59.94,73,10.83-21.37,12.54,20.48-5,9.95a4,4,0,0,1-5.3,1.72l-11.31-5.66h0a3.82,3.82,0,0,1-1.94-2.23,3.75,3.75,0,0,1,.22-2.88Z"/><path class="cls-1" d="M389.75,267.87a21.45,21.45,0,0,0,26.66,14.28l88.67-26.51.83,2.74h0a22.44,22.44,0,0,0,27.93,14.95l10.17-3a22.33,22.33,0,0,0,15-27.85l-17.65-58.36h0a22.48,22.48,0,0,0-27.93-15l-10.17,3.05h0a22.34,22.34,0,0,0-15,27.85l.82,2.7-88.62,26.5a21.31,21.31,0,0,0-14.35,26.59Zm76.13-40L459.58,251l-17.64,5.27,6.3-23.06Zm39.48-36.6h0a4.88,4.88,0,0,1,2.93-2.37l10.17-3h0a5,5,0,0,1,6.18,3.25l17.65,58.36h0a4.77,4.77,0,0,1-.38,3.64,4.83,4.83,0,0,1-2.92,2.37l-10.18,3a4.94,4.94,0,0,1-6.17-3.26l-3.35-11.07v0l-10.95-36.17L505,195h0a4.76,4.76,0,0,1,.37-3.64ZM500,238.89l-20.68,6.18L485.64,222l8.49-2.54,1.9,6.28Zm-96.87,9h0a3.86,3.86,0,0,1,2.32-1.89l23-6.88-6.3,23.06-10.78,3.23h0a3.92,3.92,0,0,1-4.9-2.58l-3.65-12.06a3.68,3.68,0,0,1,.29-2.87Z"/><path class="cls-1" d="M515.87,361l-1.79-60.83h0a22.41,22.41,0,0,0-22.38-21.72H491l-10.7.32a22.37,22.37,0,0,0-21.73,23l.08,2.79-92.56,2.69h0a21.38,21.38,0,0,0-20.75,22l.37,12.51h0a21.4,21.4,0,0,0,21.36,20.75h.63l92.57-2.69.09,2.79a22.39,22.39,0,0,0,22.36,21.74h.67l10.71-.31a22.44,22.44,0,0,0,21.73-23Zm-116.68-16.9,12.11-20.63,18.39-.53-12.1,20.62Zm-32,.93h-.11a3.89,3.89,0,0,1-3.88-3.76l-.36-12.51h0a3.88,3.88,0,0,1,3.76-4l24-.7-12.12,20.63Zm71-2.07,12.11-20.62,8.86-.26.6,20.25Zm55.39,23.59-10.7.31h0a4.89,4.89,0,0,1-5-4.74h0l-1.79-60.83a4.88,4.88,0,0,1,4.75-5l10.7-.32h.15a4.89,4.89,0,0,1,4.89,4.74l1.79,60.82h0a4.91,4.91,0,0,1-4.75,5Z"/></g></g></svg>