<svg xmlns="http://www.w3.org/2000/svg" viewBox="0 0 755 245.53"><defs><style>.cls-1{fill:#fff;}</style></defs><g id="Layer_2" data-name="Layer 2"><g id="Layer_1-2" data-name="Layer 1"><path d="M0,106.24s57.53,72.7,69.88,101.29c0,0,72-13.77,141.88,0,0,0,39.89-66.35,71.3-101.29,0,0-31.06-17.65-45.18,9.88,0,0-8.47,22.94-18,24,0,0-29.78,9.82-45.52-16.17a20.83,20.83,0,0,1-2.26-17c2.16-6.75,8.43-14.61,24.84-19,0,0-42-35.29-55.41-87.88,0,0-13.06,56.12-55.41,87.18,0,0,32.12,7.76,25.06,31.76s-34.24,23.3-34.24,23.3-24,1.62-31.59-23.46a27.7,27.7,0,0,0-9.06-13.64C29.35,99.58,17.66,95.75,0,106.24Z"/><path d="M68.64,227.68c11.72-1.84,75.2-10.73,145.47.14a9.37,9.37,0,0,0,4.31-.29c2.45-.79,5.3-2.91,4.33-8.53a5.85,5.85,0,0,0-4.81-4.79c-14.4-2.4-70.74-10.18-150.74-.91a8.52,8.52,0,0,0-7.64,8,5.72,5.72,0,0,0,3.78,5.78A9.5,9.5,0,0,0,68.64,227.68Z"/><path d="M358.39,89.05A2.2,2.2,0,0,0,360,86.87V58.48a1.7,1.7,0,0,0-3.37-.18c-.42,2.64-1.71,6.85-5.63,3.82,0,0-19.06-11.83-37.76-2.3s-13.42,28.24-13.42,28.24,1.77,16.06,26.65,27.7,25.41,16.42,21,27c-3.26,7.83-16.07,6.5-22.53,5.27a16.79,16.79,0,0,1-7.12-3.23c-4.85-3.78-13.2-11.72-12.7-21.27,0,0,0-6.35-4.59-4.94l-.35,33.88s-.53,6.27,3.88,2.52c0,0,3.88-7.11,10.23-4.28,0,0,30.54,14.11,45.71-8s-2.29-36.61-2.29-36.61S351.18,99,326.29,88.06s-4.05-27.53,5.12-25.59S353.12,68.29,356.12,87C356.12,87,356.67,89.43,358.39,89.05Z"/><circle cx="427.18" cy="106.23" r="50.12"/><path d="M527.12,57.71h-45s-1.41,2.88,0,5.23c0,0,7.76-.29,10.23,6.94S531,157.41,531,157.41l37.41-81.17s5.65-14.12,14.12-14.48c0,0,1.41-3.17,0-4H551.12s-1.94,1,0,4c0,0,10.76.18,11.29,6.36S540,123.35,540,123.35L517.24,70.24s-5.12-7.95,9.35-8.65l.88.17Z"/><path d="M597.71,153.53H566.12s-1.59-2.12,0-3.88c0,0,7.06-.18,13.23-13.41s36.53-80.83,36.53-80.83l36.88,82.06s3.36,11.65,12,11.82c0,0,3.71,1.77,1.42,4.24H621.35s-2.64-.71-.88-3.88c0,0,8.65,1.06,9.53-5.3,0,0-.35-3.7-6.18-16.94H592.41a3.5,3.5,0,0,0-2.65,2.83c-.52,2.47-3.52,10.23-3.52,10.23s-3,8.29,8.47,9h3.17S599.82,151.76,597.71,153.53Z"/><polygon class="cls-1" points="141.53 55.41 121.77 92.47 141.53 127.77 160.94 91.59 141.53 55.41"/><ellipse class="cls-1" cx="141.35" cy="163.59" rx="19.59" ry="16.76"/><ellipse class="cls-1" cx="427.18" cy="105.76" rx="24.59" ry="42.82"/><polygon class="cls-1" points="607.41 90.18 594.53 119.65 620.47 119.65 607.41 90.18"/><path d="M669.35,57.53h50.47s.89,2.65,0,3.88c0,0-13.23-.35-13.94,6.35s0,72.36,0,72.36-.88,6,4.59,5.64,22.24,0,22.24,0,12.53.18,19.76-26.11a2,2,0,0,1,2.53-1.24v35.06H669.35v-4.29s12.89,2.35,13-7.42V67.65s-2.59-6.83-13-5.18Z"/><path d="M338.4,210.35v-2.81c6.09-.61,6.5-1.14,6.5-8l-.08-29.65c-5.77,13.08-12.1,27.52-17.87,40.44H324.3c-5.21-12.39-10.9-26.53-16.67-39.83-1,23.87-1,28.58-1,31.32.08,4.1,1.68,5.17,7.69,5.7v2.81H294.41v-2.81c4.57-.38,6.65-1.22,7.29-5.78.32-2.28.64-6.61,2.49-31.7.24-3.65-.32-5.7-7.21-6.31v-2.81h17.3l15.47,33.53,15.55-33.53h16.9v2.81c-6.41.61-7.13,1.22-7,7.3l.64,28.51c.08,6.84.4,7.14,6.89,8v2.81Z"/><path d="M408.53,197.45c-.38,2.05-2.54,10.78-3.23,12.9H365.41v-2.73c7-.68,7.46-1.06,7.46-7.44v-29c0-6.46-.93-6.91-6.15-7.37V161h25c8.07,0,10.76-.07,11.83-.15.08,1.37.46,7.6.77,12.3l-3,.38c-.7-2.58-2-5.69-3.31-7.06-1.38-1.52-2.38-2-6.3-2h-5c-2.92,0-3.23.15-3.23,2.73V183.1H386c4.3,0,5.07-1.14,6.22-6.53h3V193.5h-3c-1.23-5.62-1.84-6.53-6.3-6.53h-2.46V200c0,5.24.16,6.83,4.92,6.91h5.46c4.3,0,5.46-.54,7.15-2.58a34.16,34.16,0,0,0,4.69-7.6Z"/><path d="M455.7,174.23a23.45,23.45,0,0,0-3.34-7.47c-1.4-1.61-2-2.22-6.6-2.22h-5v35.83c0,6.41.77,6.86,7.69,7.4v2.82H422.7v-2.82c6.6-.54,7.3-1,7.3-7.4V164.54h-4.74c-4.35,0-5.59.69-7.07,2.52A29.05,29.05,0,0,0,415,174.3h-2.95c.54-5.56,1.09-11.51,1.24-15.17h2.33c1.17,1.76,2.1,1.91,4.43,1.91h31.05a5.18,5.18,0,0,0,4.51-1.91h2.25c.08,3.2.39,9.91.78,14.87Z"/><path d="M482.51,210.35v-2.79c4.8-.68,4.8-1.51,3.73-4.75-.76-2.27-2-5.67-3.12-8.68H468.28c-.84,2.33-1.9,5.2-2.66,7.54-1.6,4.76.23,5.36,6.24,5.89v2.79h-18.8v-2.79c4.79-.6,6-1.28,8.6-7.62l15.83-39,3.65-.67c4.88,13.13,10.05,26.56,15,39.17,2.82,7,3.5,7.55,8.45,8.15v2.79Zm-6.69-36.08c-2.21,5.44-4.34,10.5-6.24,16h12.1Z"/><path d="M552,197.11c-.67,3.23-3,11.21-3.79,13.24H506.43v-2.78c7.41-.45,8.09-1,8.09-7.3V171.59c0-6.33-.84-6.93-7.16-7.38v-2.78h26.28v2.78c-6.57.53-7.41,1-7.41,7.38v29.2c0,4.14.16,6,4.8,6.1.17.08,4,.08,4.38.08,4.8,0,6.06-.91,8.08-2.94a31.17,31.17,0,0,0,5.31-7.83Z"/><path d="M585.22,174.16c-1.7-4.66-4.07-10-11.88-10-4.92,0-8.14,3-8.14,7.06s3.14,6.42,10.6,9.62c9.08,3.86,14.85,7.65,14.85,14.87,0,8.59-8.32,14.86-20.44,14.86A56.2,56.2,0,0,1,556,208.33c-.51-1.68-2-9.25-2.55-12.68l3.31-.65c1.7,4.59,6.45,12.53,14.76,12.53,5.17,0,8.31-2.77,8.31-7.43,0-4.23-3-6.71-10.18-10C560.79,186,555,182.39,555,174.82s7-13.7,19.68-13.7a72.45,72.45,0,0,1,12.13,1.31c.34,2.69.93,6.48,1.61,11.07Z"/><path d="M654.35,197c-.63,3.22-2.85,11.17-3.56,13.2H611.51V207.4c7-.45,7.6-1,7.6-7.27V171.55c0-6.3-.79-6.9-6.73-7.35v-2.77h24.71v2.77c-6.18.53-7,1.05-7,7.35v29.1c0,4.13.16,6,4.51,6.08.16.07,3.81.07,4.12.07,4.52,0,5.7-.9,7.6-2.92a30.85,30.85,0,0,0,5-7.8Z"/><path d="M701.12,197c-.64,3.22-2.85,11.17-3.57,13.2H658.27V207.4c7-.45,7.61-1,7.61-7.27V171.55c0-6.3-.8-6.9-6.74-7.35v-2.77h24.71v2.77c-6.17.53-7,1.05-7,7.35v29.1c0,4.13.16,6,4.52,6.08.16.07,3.8.07,4.12.07,4.51,0,5.7-.9,7.6-2.92a31.41,31.41,0,0,0,5-7.8Z"/><path d="M753,196.79a106.3,106.3,0,0,1-4,11.68,61.3,61.3,0,0,1-13.18,1.88c-19.25,0-27.2-12.54-27.2-24.07,0-15,11.31-25.16,28.49-25.16,6.23,0,11.74,1.52,13.53,1.74.36,3.41.86,8.77,1.36,12l-2.86.51c-1.5-5.66-3.65-8.34-7.45-9.86a17.66,17.66,0,0,0-6.22-1c-10.38,0-15.61,8.78-15.61,20.16,0,13.27,6.73,22.26,16.54,22.26,6,0,10-3.19,13.88-11.16Z"/><path d="M353.87,245.21V225.89H358l2.47,13.19,2.46-13.19H367v19.32h-2.56V230l-2.71,15.22h-2.64L356.43,230v15.22Z"/><path d="M377.42,245.21V225.89H387.5v3.27h-7.35v4.28H387v3.26h-6.83v5.24h7.6v3.27Z"/><path d="M400.82,245.21V229.16h-4v-3.27h10.8v3.27h-4v16.05Z"/><path d="M427.91,245.21h-3l-1.19-4.38h-5.44l-1.12,4.38h-2.92l5.29-19.32h2.91Zm-5-7.64L421,230.4l-1.84,7.17Z"/><path d="M437.11,245.21V226.05h2.74v15.89h6.83v3.27Z"/><path d="M468.4,235.67a15.85,15.85,0,0,1,.88-5.69,7.6,7.6,0,0,1,2.29-3.32,5.4,5.4,0,0,1,3.42-1.09,5.6,5.6,0,0,1,4.76,2.59q1.83,2.59,1.83,7.39c0,3.23-.64,5.76-1.94,7.57a5.7,5.7,0,0,1-9.29,0A12.65,12.65,0,0,1,468.4,235.67Zm2.83-.13a9.21,9.21,0,0,0,1.09,5,3,3,0,0,0,5.37,0,9.56,9.56,0,0,0,1.07-5.08,9.33,9.33,0,0,0-1-5A3.1,3.1,0,0,0,475,228.9a3.15,3.15,0,0,0-2.73,1.62A9.41,9.41,0,0,0,471.23,235.54Z"/><path d="M491.43,245.21V225.89h5.78a6.94,6.94,0,0,1,3.16.53,3.7,3.7,0,0,1,1.56,1.8,7.08,7.08,0,0,1,.61,3.08,6.4,6.4,0,0,1-.93,3.64,4,4,0,0,1-2.65,1.74,7.63,7.63,0,0,1,1.46,1.62,23.82,23.82,0,0,1,1.57,3.14l1.65,3.77h-3.27l-2-4.21a26.35,26.35,0,0,0-1.46-2.85,2.24,2.24,0,0,0-.81-.79,3.34,3.34,0,0,0-1.38-.22h-.56v8.07Zm2.74-11.15h2a8.75,8.75,0,0,0,2.38-.19,1.6,1.6,0,0,0,.82-.77,3.23,3.23,0,0,0,.32-1.54,3,3,0,0,0-.32-1.48,1.64,1.64,0,0,0-.86-.77,9,9,0,0,0-2.23-.15h-2.14Z"/><path d="M512.82,245.21V225.89H522.9v3.27h-7.35v4.28h6.83v3.26h-6.83v5.24h7.6v3.27Z"/><path d="M532.46,238.91l2.68-.37q.45,3.71,3,3.7a2.54,2.54,0,0,0,2-.76,2.6,2.6,0,0,0,.71-1.87,2.29,2.29,0,0,0-.25-1.12,1.89,1.89,0,0,0-.75-.76,18.21,18.21,0,0,0-2.47-1,7.78,7.78,0,0,1-2.56-1.34,5.06,5.06,0,0,1-1.3-1.9A6.68,6.68,0,0,1,533,231a6.4,6.4,0,0,1,.62-2.84,4.41,4.41,0,0,1,1.7-1.91,5.16,5.16,0,0,1,2.68-.64,4.74,4.74,0,0,1,3.74,1.51,6.57,6.57,0,0,1,1.42,4.33l-2.74.18a3.75,3.75,0,0,0-.78-2.18,2.28,2.28,0,0,0-1.71-.62,2.47,2.47,0,0,0-1.71.54,1.73,1.73,0,0,0-.6,1.34,1.81,1.81,0,0,0,.55,1.33,7.08,7.08,0,0,0,2.5,1.18,9.82,9.82,0,0,1,3,1.47,4.89,4.89,0,0,1,1.4,2,7.87,7.87,0,0,1,.49,3,6.65,6.65,0,0,1-1.33,4.22,4.92,4.92,0,0,1-4.15,1.71Q533,245.53,532.46,238.91Z"/><path d="M569.53,245.21V229.16h-4v-3.27h10.79v3.27h-4v16.05Z"/><path d="M585.76,245.21V225.89h5.78a7,7,0,0,1,3.17.53,3.8,3.8,0,0,1,1.56,1.8,7.23,7.23,0,0,1,.61,3.08,6.32,6.32,0,0,1-.94,3.64,4,4,0,0,1-2.65,1.74,7.37,7.37,0,0,1,1.46,1.62,23.82,23.82,0,0,1,1.57,3.14l1.65,3.77H594.7l-2-4.21a29.26,29.26,0,0,0-1.45-2.85,2.33,2.33,0,0,0-.82-.79,3.27,3.27,0,0,0-1.38-.22h-.56v8.07Zm2.74-11.15h2a8.7,8.7,0,0,0,2.38-.19,1.56,1.56,0,0,0,.82-.77,3.23,3.23,0,0,0,.32-1.54,3,3,0,0,0-.32-1.48,1.61,1.61,0,0,0-.86-.77,8.92,8.92,0,0,0-2.22-.15H588.5Z"/><path d="M619.4,245.21h-3l-1.19-4.38H609.8l-1.12,4.38h-2.92l5.29-19.32H614Zm-5-7.64-1.88-7.17-1.84,7.17Z"/><path d="M628.52,225.89h5a6.46,6.46,0,0,1,2.86.5,5,5,0,0,1,1.78,1.67,9.21,9.21,0,0,1,1.28,3,20.19,20.19,0,0,1,.46,4.65,16.93,16.93,0,0,1-.49,4.35,9.15,9.15,0,0,1-1.23,2.93,4.9,4.9,0,0,1-1.8,1.63,5.93,5.93,0,0,1-2.71.55h-5.15Zm2.73,3.27v12.78h2.06a4.66,4.66,0,0,0,1.91-.29,2.43,2.43,0,0,0,1-.88,5.4,5.4,0,0,0,.62-1.84,22.7,22.7,0,0,0,0-6.72,4.91,4.91,0,0,0-.79-1.94,2.5,2.5,0,0,0-1.31-.94,9.6,9.6,0,0,0-2.23-.17Z"/><path d="M649.84,245.21V225.89h2.73v19.32Z"/><path d="M662.91,245.21V225.89h2.67l5.56,12.9v-12.9h2.56v19.32h-2.76l-5.47-12.6v12.6Z"/><path d="M690.6,238.12v-3.27h5.91v7.69a7.45,7.45,0,0,1-2.53,2.11,6.88,6.88,0,0,1-3.29.88,5.74,5.74,0,0,1-3.55-1.15,7.65,7.65,0,0,1-2.44-3.45,16.74,16.74,0,0,1,0-10.86,7.9,7.9,0,0,1,2.37-3.39,5.52,5.52,0,0,1,3.47-1.11,5.33,5.33,0,0,1,3.9,1.44,7.3,7.3,0,0,1,1.88,4.23l-2.71.73a4.34,4.34,0,0,0-1.12-2.28,2.7,2.7,0,0,0-2-.79,3.28,3.28,0,0,0-2.83,1.59,8.58,8.58,0,0,0-1.09,4.84,9.91,9.91,0,0,0,1.17,5.31,3.11,3.11,0,0,0,2.73,1.56,3.63,3.63,0,0,0,1.67-.44,5.18,5.18,0,0,0,1.54-1.2v-2.44Z"/><rect x="297.18" y="235.47" width="48.18" height="3.53"/><rect x="704.79" y="235.47" width="48.18" height="3.53"/></g></g></svg>